<?xml version="1.0" encoding="UTF-8"?>
<svg version="1.1" xmlns="http://www.w3.org/2000/svg" width="550" height="390">
<path d="M0 0 C3.01674286 2.84435755 3.14233723 3.71450159 3.69140625 7.9453125 C3.60660821 14.67800775 -0.24003978 19.51760644 -3.875 24.9375 C-4.53177734 25.94941406 -5.18855469 26.96132812 -5.86523438 28.00390625 C-7.18553123 30.03573254 -8.51382381 32.06238573 -9.85009766 34.08374023 C-12.895586 38.70653238 -15.85282253 43.38448724 -18.8125 48.0625 C-19.52031616 49.17866699 -19.52031616 49.17866699 -20.24243164 50.31738281 C-26.94911996 60.89783492 -33.59986538 71.5128198 -40.2331543 82.1394043 C-44.66832544 89.24125266 -49.12858224 96.32673685 -53.60546875 103.40234375 C-56.69010732 108.27940744 -59.75843306 113.16623938 -62.8125 118.0625 C-66.35505211 123.74189691 -69.92101129 129.40599805 -73.5 135.0625 C-78.12932793 142.38021368 -82.72733854 149.71703872 -87.3125 157.0625 C-93.29821387 166.65041769 -99.31614607 176.21724568 -105.36083984 185.76806641 C-107.34504041 188.90421119 -109.32672319 192.04194158 -111.30761719 195.18017578 C-112.30313666 196.75614578 -113.29986288 198.3313542 -114.29785156 199.90576172 C-116.91258784 204.03388606 -119.50211771 208.1753481 -122.05859375 212.33984375 C-122.86006836 213.63535156 -122.86006836 213.63535156 -123.67773438 214.95703125 C-124.69814432 216.60743343 -125.71160036 218.26216304 -126.71679688 219.921875 C-131.64994782 227.86706109 -131.64994782 227.86706109 -135.8125 230.0625 C-140.22640625 230.97632029 -144.03797437 231.01913727 -148.06689453 228.84716797 C-150.29161828 227.17057197 -152.33068566 225.39201994 -154.375 223.5 C-155.8640284 222.19728209 -157.35360488 220.89519037 -158.84375 219.59375 C-159.53855469 218.97242188 -160.23335938 218.35109375 -160.94921875 217.7109375 C-163.02306859 215.8762108 -165.16418688 214.16661297 -167.375 212.5 C-172.19078872 208.8091349 -176.87458711 204.95893361 -181.5715332 201.11889648 C-184.9573312 198.35758218 -188.35781507 195.62291468 -191.81640625 192.953125 C-192.44780518 192.46489258 -193.0792041 191.97666016 -193.72973633 191.47363281 C-194.91438006 190.56151869 -196.10278562 189.65426052 -197.2956543 188.75292969 C-201.8133151 185.27227585 -205.1558409 182.3815872 -206.73828125 176.79296875 C-206.83136555 172.11425779 -205.64556212 168.70189309 -204 164.375 C-196.79794878 144.11639347 -197.79105161 126.09157267 -205.8125 106.0625 C-213.06021668 105.95728687 -220.21906601 106.27421929 -227.4465332 106.796875 C-228.56518265 106.87490356 -229.68383209 106.95293213 -230.83638 107.0333252 C-233.25137263 107.20210566 -235.66625971 107.37240177 -238.08104897 107.54406738 C-241.92252585 107.81670471 -245.76432199 108.08434146 -249.60624695 108.35058594 C-260.52552584 109.10798184 -271.4442884 109.8725935 -282.36254883 110.64453125 C-289.05858436 111.1178907 -295.75513017 111.58341864 -302.45198631 112.04504395 C-304.98308371 112.22093207 -307.51399756 112.39948549 -310.04470253 112.58093262 C-321.92381671 113.43214999 -333.7745432 114.21449174 -345.68823242 114.2578125 C-346.53825742 114.26274719 -347.38828241 114.26768188 -348.26406574 114.27276611 C-359.29198586 114.20587429 -365.64495622 109.80342075 -374.08984375 103.015625 C-378.23563766 99.69179349 -382.52082858 96.56924832 -386.8125 93.4375 C-393.72896278 88.37095081 -400.57054716 83.21587192 -407.375 78 C-414.58527586 72.4758703 -421.87337458 67.08620996 -429.26123047 61.80249023 C-435.29134828 57.4760664 -441.19874442 53.0022393 -447.06933594 48.4621582 C-448.04628418 47.70745239 -448.04628418 47.70745239 -449.04296875 46.9375 C-449.666875 46.45450439 -450.29078125 45.97150879 -450.93359375 45.47387695 C-452.83995259 44.04187845 -454.79267303 42.699472 -456.76171875 41.35546875 C-459.8125 39.0625 -459.8125 39.0625 -460.4375 36.375 C-459.8125 34.0625 -459.8125 34.0625 -456.8125 32.0625 C-453.99523926 31.63458252 -453.99523926 31.63458252 -450.50195312 31.37988281 C-449.53827851 31.3059153 -449.53827851 31.3059153 -448.55513573 31.23045349 C-446.40187117 31.0672324 -444.24790969 30.9165348 -442.09375 30.765625 C-440.55642718 30.65134874 -439.01916627 30.53623705 -437.48196411 30.42034912 C-434.17038723 30.17225947 -430.85847764 29.92951814 -427.54620361 29.69091797 C-422.25067631 29.30926952 -416.95607918 28.91570623 -411.66162109 28.51953125 C-409.8515321 28.38415368 -408.04144299 28.24877771 -406.23135376 28.11340332 C-405.32848255 28.04585342 -404.42561134 27.97830353 -403.4953804 27.90870667 C-400.72170392 27.70159549 -397.94794437 27.49562932 -395.17416382 27.28991699 C-383.3656128 26.41284363 -371.56043005 25.50043883 -359.7578125 24.546875 C-358.99834824 24.48552809 -358.23888397 24.42418118 -357.45640564 24.36097527 C-353.6445043 24.05278894 -349.83267209 23.74375652 -346.02087402 23.43429565 C-325.76027208 21.78990156 -305.49820492 20.17084832 -285.2265625 18.66796875 C-284.44913319 18.61031971 -283.67170387 18.55267067 -282.87071609 18.49327469 C-278.88664286 18.19802576 -274.90252815 17.90333945 -270.918396 17.60888672 C-269.29976399 17.48925785 -267.681132 17.36962894 -266.0625 17.25 C-264.85858486 17.16103958 -264.85858486 17.16103958 -263.63034821 17.07028198 C-230.64990856 14.63152113 -197.68934693 11.96516041 -164.72903061 9.26941681 C-129.06946128 6.3532698 -93.40488702 3.53886381 -57.72265625 0.9140625 C-56.96148436 0.85798765 -56.20031246 0.8019128 -55.41607475 0.74413872 C-51.78953571 0.47699183 -48.1629326 0.21081138 -44.53616333 -0.05319214 C-38.20724135 -0.51662996 -31.88266391 -1.00825243 -25.56201172 -1.57470703 C-24.44962631 -1.67356705 -23.33724091 -1.77242706 -22.19114685 -1.87428284 C-20.16369562 -2.05747831 -18.13680923 -2.2471071 -16.11073303 -2.44493103 C-5.01042097 -3.45162334 -5.01042097 -3.45162334 0 0 Z " fill="#00B6EC" transform="translate(540.8125,80.9375)"/>
<path d="M0 0 C1.51883789 0.10755615 1.51883789 0.10755615 3.06835938 0.21728516 C8.41299745 0.62106443 13.69705277 1.2302779 19 2 C20.13429443 2.15057861 20.13429443 2.15057861 21.29150391 2.30419922 C63.29052105 7.88629263 110.26224035 24.33284353 137.37109375 58.74023438 C147 71.72640022 147 71.72640022 147 77 C145.95975174 77.07418655 144.91950348 77.14837311 143.84773254 77.22480774 C139.76084686 77.51630768 135.67397323 77.80797639 131.58710289 78.09969139 C129.70158835 78.23426041 127.8160712 78.36879307 125.93055153 78.50329018 C114.30562959 79.33258588 102.68106882 80.16656387 91.05714607 81.00975227 C83.70644711 81.5425836 76.35533867 82.0695416 69.00396538 82.59298515 C64.34243539 82.92514566 59.68114987 83.26023393 55.02026367 83.60131836 C-5.0558954 87.99153171 -5.0558954 87.99153171 -21.27734375 74.953125 C-25.42313766 71.62929349 -29.70832858 68.50674832 -34 65.375 C-40.91646278 60.30845081 -47.75804716 55.15337192 -54.5625 49.9375 C-61.77277586 44.4133703 -69.06087458 39.02370996 -76.44873047 33.73999023 C-82.47884828 29.4135664 -88.38624442 24.9397393 -94.25683594 20.3996582 C-94.90813477 19.896521 -95.55943359 19.39338379 -96.23046875 18.875 C-96.854375 18.39200439 -97.47828125 17.90900879 -98.12109375 17.41137695 C-100.02745259 15.97937845 -101.98017303 14.636972 -103.94921875 13.29296875 C-107 11 -107 11 -107.625 8.3125 C-107 6 -107 6 -104 4 C-101.389328 3.5629425 -101.389328 3.5629425 -98.20385742 3.2980957 C-97.00407257 3.19499084 -95.80428772 3.09188599 -94.56814575 2.98565674 C-92.60662064 2.83226837 -92.60662064 2.83226837 -90.60546875 2.67578125 C-89.23279318 2.56376731 -87.86014347 2.45143607 -86.48751831 2.33880615 C-82.05539834 1.98018707 -77.62161508 1.64537806 -73.1875 1.3125 C-72.43750103 1.25533184 -71.68750206 1.19816368 -70.91477585 1.13926315 C-47.19710361 -0.66794427 -23.76143625 -1.77577756 0 0 Z " fill="#2F8E3F" transform="translate(188,109)"/>
<path d="M0 0 C1.13429443 0.15057861 1.13429443 0.15057861 2.29150391 0.30419922 C44.29052105 5.88629263 91.26224035 22.33284353 118.37109375 56.74023438 C128 69.72640022 128 69.72640022 128 75 C124.22983769 75.3412158 120.45878834 75.67148283 116.6875 76 C115.63498047 76.09539062 114.58246094 76.19078125 113.49804688 76.2890625 C106.64536517 76.87944739 99.8771579 77.12334173 93 77 C92.62214355 76.2587085 92.24428711 75.51741699 91.85498047 74.75366211 C75.18300847 42.41003642 41.47641779 24.45399424 8.18945312 13.49047852 C-1.74207293 10.34091386 -11.7814212 8.00306381 -22 6 C-22.9374707 5.80776855 -23.87494141 5.61553711 -24.84082031 5.41748047 C-46.06004527 1.17004508 -67.44107265 1.18219697 -89 1 C-68.40154951 -10.77525753 -22.83016355 -3.31379528 0 0 Z " fill="#1A5733" transform="translate(207,111)"/>
</svg>
